<?xml version="1.0" standalone="no"?>
<!DOCTYPE svg PUBLIC "-//W3C//DTD SVG 20010904//EN"
 "http://www.w3.org/TR/2001/REC-SVG-20010904/DTD/svg10.dtd">
<svg version="1.0" xmlns="http://www.w3.org/2000/svg"
 width="476.000000pt" height="475.000000pt" viewBox="0 0 476.000000 475.000000"
 preserveAspectRatio="xMidYMid meet">

<g transform="translate(0.000000,475.000000) scale(0.100000,-0.100000)"
fill="#000000" stroke="none">
<path d="M2200 4693 c-106 -8 -273 -37 -395 -68 -667 -171 -1216 -618 -1521
-1240 -164 -334 -237 -650 -238 -1025 -1 -434 98 -805 312 -1180 369 -644
1048 -1085 1789 -1161 154 -16 509 -5 643 20 744 137 1361 595 1695 1259 174
347 250 672 248 1067 -1 378 -72 681 -238 1020 -236 482 -595 839 -1080 1075
-381 186 -793 265 -1215 233z m-24 -1465 l368 -491 84 89 c46 49 251 270 455
492 l371 402 129 0 c72 0 127 -4 125 -9 -1 -5 -165 -184 -363 -397 -198 -214
-431 -465 -517 -558 -87 -94 -158 -174 -158 -178 0 -5 46 -70 102 -146 108
-146 1054 -1408 1071 -1429 7 -10 -80 -13 -430 -13 l-439 0 -394 530 c-217
291 -398 529 -401 530 -3 0 -225 -239 -494 -530 l-490 -530 -134 0 -135 0 45
48 c25 26 191 205 370 397 178 193 413 446 522 563 136 147 195 217 189 225
-34 43 -1085 1452 -1098 1472 l-16 25 435 0 435 0 368 -492z"/>
<path d="M1333 3516 c3 -8 348 -472 768 -1032 419 -561 810 -1083 868 -1161
l106 -143 194 0 193 0 -18 27 c-10 16 -97 134 -194 263 -192 256 -1400 1870
-1487 1988 l-54 72 -190 0 c-159 0 -190 -2 -186 -14z"/>
</g>
</svg>
